REM DIRINDEX 1\2,1\3
REM DIRNAME cjc102,folder01,folder02
TITLE ""
FILE "CD1Track03.mp3" MP3
  TRACK 01 AUDIO
    TITLE "0:"
    INDEX 01 00:00:00
  TRACK 02 AUDIO
    TITLE "3:cjc102_0059"
    INDEX 01 00:00:27
  TRACK 03 AUDIO
    TITLE "0:"
    INDEX 01 00:01:19
  TRACK 04 AUDIO
    TITLE "2:cjc102_0060"
    INDEX 01 00:01:38
  TRACK 05 AUDIO
    TITLE "0:"
    INDEX 01 00:02:40
  TRACK 06 AUDIO
    TITLE "3:cjc102_0061"
    INDEX 01 00:03:39
  TRACK 07 AUDIO
    TITLE "0:"
    INDEX 01 00:04:21
  TRACK 08 AUDIO
    TITLE "2:cjc102_0062"
    INDEX 01 00:04:38
  TRACK 09 AUDIO
    TITLE "0:"
    INDEX 01 00:05:48
  TRACK 10 AUDIO
    TITLE "3:cjc102_0063"
    INDEX 01 00:06:24
  TRACK 11 AUDIO
    TITLE "0:"
    INDEX 01 00:07:25
  TRACK 12 AUDIO
    TITLE "2:cjc102_0064"
    INDEX 01 00:07:43
  TRACK 13 AUDIO
    TITLE "0:"
    INDEX 01 00:08:58
  TRACK 14 AUDIO
    TITLE "3:cjc102_0065"
    INDEX 01 00:09:30
  TRACK 15 AUDIO
    TITLE "0:"
    INDEX 01 00:10:21
  TRACK 16 AUDIO
    TITLE "2:cjc102_0066"
    INDEX 01 00:10:23
  TRACK 17 AUDIO
    TITLE "0:"
    INDEX 01 00:11:31
  TRACK 18 AUDIO
    TITLE "3:cjc102_0067"
    INDEX 01 00:12:18
  TRACK 19 AUDIO
    TITLE "0:"
    INDEX 01 00:13:04
  TRACK 20 AUDIO
    TITLE "2:cjc102_0068"
    INDEX 01 00:13:16
  TRACK 21 AUDIO
    TITLE "0:"
    INDEX 01 00:14:21
  TRACK 22 AUDIO
    TITLE "3:cjc102_0069"
    INDEX 01 00:15:17
  TRACK 23 AUDIO
    TITLE "0:"
    INDEX 01 00:16:04
  TRACK 24 AUDIO
    TITLE "2:cjc102_0070"
    INDEX 01 00:16:12
  TRACK 25 AUDIO
    TITLE "0:"
    INDEX 01 00:17:25
  TRACK 26 AUDIO
    TITLE "3:cjc102_0071"
    INDEX 01 00:18:35
  TRACK 27 AUDIO
    TITLE "0:"
    INDEX 01 00:19:26
  TRACK 28 AUDIO
    TITLE "2:cjc102_0072"
    INDEX 01 00:19:56
  TRACK 29 AUDIO
    TITLE "0:"
    INDEX 01 00:20:63
  TRACK 30 AUDIO
    TITLE "2:cjc102_0073"
    INDEX 01 00:21:33
  TRACK 31 AUDIO
    TITLE "0:"
    INDEX 01 00:22:48
  TRACK 32 AUDIO
    TITLE "3:cjc102_0074"
    INDEX 01 00:23:51
  TRACK 33 AUDIO
    TITLE "0:"
    INDEX 01 00:24:47
  TRACK 34 AUDIO
    TITLE "2:cjc102_0075"
    INDEX 01 00:24:51
  TRACK 35 AUDIO
    TITLE "0:"
    INDEX 01 00:25:58
  TRACK 36 AUDIO
    TITLE "2:cjc102_0076"
    INDEX 01 00:26:22
  TRACK 37 AUDIO
    TITLE "0:"
    INDEX 01 00:27:28
  TRACK 38 AUDIO
    TITLE "3:cjc102_0077"
    INDEX 01 00:28:33
  TRACK 39 AUDIO
    TITLE "0:"
    INDEX 01 00:29:23
  TRACK 40 AUDIO
    TITLE "2:cjc102_0078"
    INDEX 01 00:29:40
  TRACK 41 AUDIO
    TITLE "0:"
    INDEX 01 00:30:46
  TRACK 42 AUDIO
    TITLE "2:cjc102_0079"
    INDEX 01 00:31:12
  TRACK 43 AUDIO
    TITLE "0:"
    INDEX 01 00:32:21
  TRACK 44 AUDIO
    TITLE "3:cjc102_0080"
    INDEX 01 00:33:34
  TRACK 45 AUDIO
    TITLE "0:"
    INDEX 01 00:34:26
  TRACK 46 AUDIO
    TITLE "2:cjc102_0081"
    INDEX 01 00:34:42
  TRACK 47 AUDIO
    TITLE "0:"
    INDEX 01 00:35:39
  TRACK 48 AUDIO
    TITLE "2:cjc102_0082"
    INDEX 01 00:36:15
  TRACK 49 AUDIO
    TITLE "0:"
    INDEX 01 00:37:10
  TRACK 50 AUDIO
    TITLE "3:cjc102_0083"
    INDEX 01 00:38:33
  TRACK 51 AUDIO
    TITLE "0:"
    INDEX 01 00:39:47
  TRACK 52 AUDIO
    TITLE "2:cjc102_0084"
    INDEX 01 00:39:68
  TRACK 53 AUDIO
    TITLE "0:"
    INDEX 01 00:41:02
  TRACK 54 AUDIO
    TITLE "2:cjc102_0085"
    INDEX 01 00:41:44
  TRACK 55 AUDIO
    TITLE "0:"
    INDEX 01 00:42:55
  TRACK 56 AUDIO
    TITLE "3:cjc102_0086"
    INDEX 01 00:43:66
  TRACK 57 AUDIO
    TITLE "0:"
    INDEX 01 00:44:71
  TRACK 58 AUDIO
    TITLE "2:cjc102_0087"
    INDEX 01 00:45:20
  TRACK 59 AUDIO
    TITLE "0:"
    INDEX 01 00:46:31
  TRACK 60 AUDIO
    TITLE "2:cjc102_0088"
    INDEX 01 00:46:68
  TRACK 61 AUDIO
    TITLE "0:"
    INDEX 01 00:48:12
  TRACK 62 AUDIO
    TITLE "3:cjc102_0089"
    INDEX 01 00:49:21
  TRACK 63 AUDIO
    TITLE "0:"
    INDEX 01 00:50:35
  TRACK 64 AUDIO
    TITLE "2:cjc102_0090"
    INDEX 01 00:50:62
  TRACK 65 AUDIO
    TITLE "0:"
    INDEX 01 00:51:52
  TRACK 66 AUDIO
    TITLE "2:cjc102_0091"
    INDEX 01 00:52:37
  TRACK 67 AUDIO
    TITLE "0:"
    INDEX 01 00:53:23
  TRACK 68 AUDIO
    TITLE "3:cjc102_0092"
    INDEX 01 00:54:52
  TRACK 69 AUDIO
    TITLE "0:"
    INDEX 01 00:55:69
  TRACK 70 AUDIO
    TITLE "2:cjc102_0093"
    INDEX 01 00:57:15
  TRACK 71 AUDIO
    TITLE "0:"
    INDEX 01 00:58:28
  TRACK 72 AUDIO
    TITLE "2:cjc102_0094"
    INDEX 01 00:59:61
  TRACK 73 AUDIO
    TITLE "0:"
    INDEX 01 01:00:70
  TRACK 74 AUDIO
    TITLE "2:cjc102_0095"
    INDEX 01 01:02:46
  TRACK 75 AUDIO
    TITLE "0:"
    INDEX 01 01:03:55
  TRACK 76 AUDIO
    TITLE "2:cjc102_0096"
    INDEX 01 01:04:62
  TRACK 77 AUDIO
    TITLE "0:"
    INDEX 01 01:05:69
  TRACK 78 AUDIO
    TITLE "3:cjc102_0097"
    INDEX 01 01:07:37
  TRACK 79 AUDIO
    TITLE "0:"
    INDEX 01 01:08:42
  TRACK 80 AUDIO
    TITLE "2:cjc102_0098"
    INDEX 01 01:09:34
  TRACK 81 AUDIO
    TITLE "0:"
    INDEX 01 01:10:55
  TRACK 82 AUDIO
    TITLE "2:cjc102_0099"
    INDEX 01 01:11:47
  TRACK 83 AUDIO
    TITLE "0:"
    INDEX 01 01:12:48
  TRACK 84 AUDIO
    TITLE "2:cjc102_0100"
    INDEX 01 01:14:00
  TRACK 85 AUDIO
    TITLE "0:"
    INDEX 01 01:15:13
  TRACK 86 AUDIO
    TITLE "2:cjc102_0101"
    INDEX 01 01:16:18
  TRACK 87 AUDIO
    TITLE "0:"
    INDEX 01 01:17:24
  TRACK 88 AUDIO
    TITLE "3:cjc102_0102"
    INDEX 01 01:18:58
  TRACK 89 AUDIO
    TITLE "0:"
    INDEX 01 01:19:68
  TRACK 90 AUDIO
    TITLE "2:cjc102_0103"
    INDEX 01 01:20:63
  TRACK 91 AUDIO
    TITLE "0:"
    INDEX 01 01:21:72
  TRACK 92 AUDIO
    TITLE "2:cjc102_0104"
    INDEX 01 01:22:52
  TRACK 93 AUDIO
    TITLE "0:"
    INDEX 01 01:23:67
  TRACK 94 AUDIO
    TITLE "2:cjc102_0105"
    INDEX 01 01:25:13
  TRACK 95 AUDIO
    TITLE "0:"
    INDEX 01 01:26:29
  TRACK 96 AUDIO
    TITLE "2:cjc102_0106"
    INDEX 01 01:27:44
  TRACK 97 AUDIO
    TITLE "0:"
    INDEX 01 01:28:53
